<svg xmlns="http://www.w3.org/2000/svg" viewBox="0 0 100 100">
  <defs>
    <linearGradient id="leafGrad" x1="0%" y1="0%" x2="100%" y2="100%">
      <stop offset="0%" stop-color="#22c55e" />
      <stop offset="100%" stop-color="#15803d" />
    </linearGradient>
    <linearGradient id="aiGrad" x1="0%" y1="100%" x2="100%" y2="0%">
      <stop offset="0%" stop-color="#10b981" />
      <stop offset="100%" stop-color="#3b82f6" />
    </linearGradient>
  </defs>
  <rect width="100" height="100" rx="24" fill="#052e16" />
  <!-- Leaf shape -->
  <path d="M 50 16 C 68 16, 82 34, 82 56 C 82 78, 62 84, 50 84 C 38 84, 18 78, 18 56 C 18 34, 32 16, 50 16 Z" fill="url(#leafGrad)" />
  <path d="M 50 18 L 50 82" stroke="#dcfce7" stroke-width="3" stroke-linecap="round" />
  <path d="M 50 40 L 70 30" stroke="#dcfce7" stroke-width="2.5" stroke-linecap="round" />
  <path d="M 50 56 L 72 48" stroke="#dcfce7" stroke-width="2.5" stroke-linecap="round" />
  <path d="M 50 48 L 30 38" stroke="#dcfce7" stroke-width="2.5" stroke-linecap="round" />
  <path d="M 50 64 L 32 56" stroke="#dcfce7" stroke-width="2.5" stroke-linecap="round" />
  <!-- AI Core Sparkle -->
  <circle cx="70" cy="26" r="10" fill="url(#aiGrad)" />
  <circle cx="70" cy="26" r="4" fill="#ffffff" />
</svg>